<mxfile host="app.diagrams.net" agent="Mozilla/5.0 (Windows NT 10.0; Win64; x64) AppleWebKit/537.36 (KHTML, like Gecko) Chrome/131.0.0.0 Safari/537.36" version="24.8.9">
  <diagram name="Trang-1" id="VOl-fyPcUlDlWBCuNDgT">
    <mxGraphModel dx="1034" dy="446" grid="1" gridSize="10" guides="1" tooltips="1" connect="1" arrows="1" fold="1" page="1" pageScale="1" pageWidth="827" pageHeight="1169" math="0" shadow="0">
      <root>
        <mxCell id="0" />
        <mxCell id="1" parent="0" />
        <mxCell id="lL8fFxVV-WzLApHITSWb-3" value="" style="edgeStyle=orthogonalEdgeStyle;rounded=0;orthogonalLoop=1;jettySize=auto;html=1;" edge="1" parent="1" source="lL8fFxVV-WzLApHITSWb-1" target="lL8fFxVV-WzLApHITSWb-2">
          <mxGeometry relative="1" as="geometry" />
        </mxCell>
        <mxCell id="lL8fFxVV-WzLApHITSWb-1" value="start" style="ellipse;whiteSpace=wrap;html=1;" vertex="1" parent="1">
          <mxGeometry x="320" y="30" width="120" height="80" as="geometry" />
        </mxCell>
        <mxCell id="lL8fFxVV-WzLApHITSWb-5" value="" style="edgeStyle=orthogonalEdgeStyle;rounded=0;orthogonalLoop=1;jettySize=auto;html=1;" edge="1" parent="1" source="lL8fFxVV-WzLApHITSWb-2" target="lL8fFxVV-WzLApHITSWb-4">
          <mxGeometry relative="1" as="geometry" />
        </mxCell>
        <mxCell id="lL8fFxVV-WzLApHITSWb-2" value="nhap A B" style="whiteSpace=wrap;html=1;" vertex="1" parent="1">
          <mxGeometry x="320" y="160" width="120" height="60" as="geometry" />
        </mxCell>
        <mxCell id="lL8fFxVV-WzLApHITSWb-7" value="" style="edgeStyle=orthogonalEdgeStyle;rounded=0;orthogonalLoop=1;jettySize=auto;html=1;" edge="1" parent="1" source="lL8fFxVV-WzLApHITSWb-4" target="lL8fFxVV-WzLApHITSWb-6">
          <mxGeometry relative="1" as="geometry" />
        </mxCell>
        <mxCell id="lL8fFxVV-WzLApHITSWb-4" value="tinh A + B" style="shape=parallelogram;perimeter=parallelogramPerimeter;whiteSpace=wrap;html=1;fixedSize=1;" vertex="1" parent="1">
          <mxGeometry x="320" y="270" width="120" height="60" as="geometry" />
        </mxCell>
        <mxCell id="lL8fFxVV-WzLApHITSWb-6" value="end" style="ellipse;whiteSpace=wrap;html=1;" vertex="1" parent="1">
          <mxGeometry x="330" y="400" width="100" height="80" as="geometry" />
        </mxCell>
      </root>
    </mxGraphModel>
  </diagram>
</mxfile>
